# xmcd CD database file
#
# Track frame offsets:
#	150
#	17826
#	38762
#	56288
#	76654
#	95858
#	119755
#	139243
#	157363
#	186494
#	218331
#	237782
#	262292
#
# Disc length: 3735 seconds
#
# Revision: 0
# Processed by: cddbd v1.5.1PL0 Copyright (c) Steve Scherf et al.
# Submitted via: CDex 1.51
#
DISCID=bc0e950d
DTITLE=Various Artist - inner Resort LIMITED PARTY EDITION
DYEAR=2004
DGENRE=Easy Listening
TTITLE0=MAKES YOU EXTATIC
TTITLE1=ASTRO BLACK
TTITLE2=FUTEBOL DE BAR(Heavy Usker Rmx)
TTITLE3=FINISTERRE
TTITLE4=KONGA KOOL
TTITLE5=COLD WINE
TTITLE6=WE HAVE TO LAUGH
TTITLE7=PRETTY PRETTY TING DONE
TTITLE8=DEEP LOVE
TTITLE9=DON'T DENY ME LOVE
TTITLE10=THE GOOSE IS GETTING FATTER
TTITLE11=HAPPY(FATBOY SLIM REMIX)
TTITLE12=LAVENDER
EXTD=YEAR: 2004
EXTT0=
EXTT1=
EXTT2=
EXTT3=
EXTT4=
EXTT5=
EXTT6=
EXTT7=
EXTT8=
EXTT9=
EXTT10=
EXTT11=
EXTT12=
PLAYORDER=
